<svg xmlns="http://www.w3.org/2000/svg" viewBox="0 0 100 100">
  <rect width="100" height="100" fill="#181a20"/>
  <g transform="translate(10 10) scale(2.5)">
    <polygon points="2,10 16,18 16,30 2,22" fill="#209050"/>
    <polygon points="30,10 16,18 16,30 30,22" fill="#186840"/>
    <polygon points="16,8 24,12.5 16,17 8,12.5" fill="#0d1117"/>
    <text x="16" y="14.5" text-anchor="middle" font-size="6" font-family="monospace" font-weight="bold" fill="#E6F5EC">&gt;_</text>
    <polygon points="16,2 2,10 8,12.5 16,8" fill="#3AC874"/>
    <polygon points="16,2 30,10 24,12.5 16,8" fill="#4BE88A"/>
    <polygon points="2,10 16,18 16,17 8,12.5" fill="#30B76A"/>
    <polygon points="30,10 16,18 16,17 24,12.5" fill="#41D57E"/>
  </g>
</svg>
